HIERARCHY
ROOT Hips
{
	OFFSET 0.00000 0.00000 0.00000
	CHANNELS 6 Xposition Yposition Zposition Zrotation Yrotation Xrotation 
	JOINT LHipJoint
	{
		OFFSET 0 0 0
		CHANNELS 3 Zrotation Yrotation Xrotation
		JOINT LeftUpLeg
		{
			OFFSET 1.62964 -1.40469 0.78906
			CHANNELS 3 Zrotation Yrotation Xrotation
			JOINT LeftLeg
			{
				OFFSET 2.29640 -6.30932 0.00000
				CHANNELS 3 Zrotation Yrotation Xrotation
				JOINT LeftFoot
				{
					OFFSET 2.29451 -6.30412 0.00000
					CHANNELS 3 Zrotation Yrotation Xrotation
					JOINT LeftToeBase
					{
						OFFSET 0.03611 -0.09921 1.56387
						CHANNELS 3 Zrotation Yrotation Xrotation
						End Site
						{
							OFFSET 0.00000 -0.00000 0.80291
						}
					}
				}
			}
		}
	}
	JOINT RHipJoint
	{
		OFFSET 0 0 0
		CHANNELS 3 Zrotation Yrotation Xrotation
		JOINT RightUpLeg
		{
			OFFSET -1.73712 -1.40469 0.78906
			CHANNELS 3 Zrotation Yrotation Xrotation
			JOINT RightLeg
			{
				OFFSET -2.28137 -6.26801 0.00000
				CHANNELS 3 Zrotation Yrotation Xrotation
				JOINT RightFoot
				{
					OFFSET -2.28681 -6.28298 0.00000
					CHANNELS 3 Zrotation Yrotation Xrotation
					JOINT RightToeBase
					{
						OFFSET -0.15927 -0.43759 1.61103
						CHANNELS 3 Zrotation Yrotation Xrotation
						End Site
						{
							OFFSET -0.00000 -0.00000 0.84630
						}
					}
				}
			}
		}
	}
	JOINT LowerBack
	{
		OFFSET 0 0 0
		CHANNELS 3 Zrotation Yrotation Xrotation
		JOINT Spine
		{
			OFFSET -0.04227 2.04338 -0.00225
			CHANNELS 3 Zrotation Yrotation Xrotation
			JOINT Spine1
			{
				OFFSET -0.02148 2.04482 -0.04273
				CHANNELS 3 Zrotation Yrotation Xrotation
				JOINT Neck
				{
					OFFSET 0 0 0
					CHANNELS 3 Zrotation Yrotation Xrotation
					JOINT Neck1
					{
						OFFSET 0.09180 1.44629 0.19359
						CHANNELS 3 Zrotation Yrotation Xrotation
						JOINT Head
						{
							OFFSET 0.00887 1.40645 0.14750
							CHANNELS 3 Zrotation Yrotation Xrotation
							End Site
							{
								OFFSET -0.00669 1.50671 0.03707
							}
						}
					}
				}
				JOINT LeftShoulder
				{
					OFFSET 0 0 0
					CHANNELS 3 Zrotation Yrotation Xrotation
					JOINT LeftArm
					{
						OFFSET 2.17674 1.86763 -0.06520
						CHANNELS 3 Zrotation Yrotation Xrotation
						JOINT LeftForeArm
						{
							OFFSET 4.65776 -0.00000 0.00000
							CHANNELS 3 Zrotation Yrotation Xrotation
							JOINT LeftHand
							{
								OFFSET 3.55539 -0.00000 0.00000
								CHANNELS 3 Zrotation Yrotation Xrotation
								JOINT LeftFingerBase
								{
									OFFSET 0 0 0
									CHANNELS 3 Zrotation Yrotation Xrotation
									JOINT LeftHandIndex1
									{
										OFFSET 0.70726 -0.00000 0.00000
										CHANNELS 3 Zrotation Yrotation Xrotation
										End Site
										{
											OFFSET 0.57022 -0.00000 0.00000
										}
									}
								}
								JOINT LThumb
								{
									OFFSET 0 0 0
									CHANNELS 3 Zrotation Yrotation Xrotation
									End Site
									{
										OFFSET 0.57892 -0.00000 0.57892
									}
								}
							}
						}
					}
				}
				JOINT RightShoulder
				{
					OFFSET 0 0 0
					CHANNELS 3 Zrotation Yrotation Xrotation
					JOINT RightArm
					{
						OFFSET -2.80694 1.55459 -0.32496
						CHANNELS 3 Zrotation Yrotation Xrotation
						JOINT RightForeArm
						{
							OFFSET -4.71925 -0.00000 -0.00000
							CHANNELS 3 Zrotation Yrotation Xrotation
							JOINT RightHand
							{
								OFFSET -3.56990 -0.00000 0.00000
								CHANNELS 3 Zrotation Yrotation Xrotation
								JOINT RightFingerBase
								{
									OFFSET 0 0 0
									CHANNELS 3 Zrotation Yrotation Xrotation
									JOINT RightHandIndex1
									{
										OFFSET -0.50776 -0.00000 0.00000
										CHANNELS 3 Zrotation Yrotation Xrotation
										End Site
										{
											OFFSET -0.40937 -0.00000 0.00000
										}
									}
								}
								JOINT RThumb
								{
									OFFSET 0 0 0
									CHANNELS 3 Zrotation Yrotation Xrotation
									End Site
									{
										OFFSET -0.41562 -0.00000 0.41562
									}
								}
							}
						}
					}
				}
			}
		}
	}
}
MOTION
Frames: 13
Frame Time: .0083333
-1.1823 19.6445 20.3748 0 0 0 0 0 0 -21 0 0 0 0 0 0 0 0 0 0 0 0 0 0 21 0 0 0 0 0 0 0 0 0 0 0 0 0 0 0 0 0 0 0 0 0 0 -16 0 0 21 0 0 11 0 0 0 -8 0 0 0 0 0 0 0 0 0 0 0 0 0 0 0 0 0 0 0 0 8 0 0 0 0 0 0 0 0 0 0 0 0 0 0 0 0 0
-1.1823 19.6445 20.3748 178.2060 -2.0351 -152.3350 0.0000 0.0000 0.0000 -20.8853 -15.1864 -20.5839 0.1595 2.5732 7.0927 0.1247 -4.0430 -6.4699 0.7040 -5.3628 -14.9464 0.0000 0.0000 0.0000 18.7839 14.8820 -21.7758 -0.1522 -2.5143 6.9292 -1.0127 2.4977 -18.3462 -1.7349 8.2905 -23.6001 -7.5791 -2.8672 -29.2853 -0.1607 -2.0003 -1.8107 3.0902 -1.6597 13.5972 -1.8174 -3.7743 -4.2932 5.5904 -5.2241 11.5148 1.7538 -2.2019 4.3432 -0.0000 0.0000 0.0000 -84.7452 2.7946 17.1846 13.6771 -22.2712 -2.7045 -0.0000 -0.0000 1.2588 22.5754 -10.3596 -4.2757 -7.1250 0.0000 -0.0000 -3.1564 18.7910 1.9744 -0.0000 0.0000 0.0000 91.8461 -8.4668 7.5101 -19.2446 29.7215 -5.1516 0.0000 -0.0000 -4.4857 -4.3000 -58.4428 3.6660 7.1250 -0.0000 -0.0000 88.5360 -73.6616 -71.4341
-1.1807 19.6489 20.3754 178.1690 -2.0919 -152.4080 0.0000 0.0000 0.0000 -20.9364 -15.1387 -20.5271 0.1604 2.5807 7.1135 0.1247 -4.1543 -6.4931 0.7250 -5.4405 -15.1694 0.0000 0.0000 0.0000 18.7843 14.7500 -21.7660 -0.1552 -2.5383 6.9960 -1.0165 2.5456 -18.3719 -1.7305 8.2806 -23.5697 -7.6132 -2.8970 -29.1651 -0.1512 -2.0311 -1.7928 3.1113 -1.6722 13.5685 -1.8117 -3.7616 -4.3531 5.5252 -5.2052 11.4571 1.7329 -2.1994 4.3331 0.0000 -0.0000 0.0000 -84.7881 2.7686 17.1287 13.7006 -22.3051 -2.7134 -0.0000 -0.0000 1.2902 22.6247 -10.4146 -4.3084 -7.1250 0.0000 -0.0000 -3.1233 18.7277 1.9581 0.0000 -0.0000 0.0000 91.8404 -8.4828 7.4842 -19.2754 29.7595 -5.1669 0.0000 -0.0000 -4.3919 -4.4612 -58.2755 3.7967 7.1250 -0.0000 -0.0000 87.9493 -73.7181 -70.8935
-1.1808 19.6457 20.3752 178.1870 -2.0311 -152.2770 0.0000 0.0000 0.0000 -20.9022 -15.0919 -20.7006 0.1610 2.5854 7.1266 0.1206 -4.2061 -6.4135 0.6853 -5.2925 -14.7449 0.0000 0.0000 0.0000 18.8195 14.5141 -22.1191 -0.1625 -2.5971 7.1589 -1.0157 2.9002 -18.2968 -1.7864 8.4063 -23.9551 -7.5621 -2.8949 -29.3087 -0.1326 -2.0473 -1.8255 3.0924 -1.6812 13.5969 -1.8365 -3.7275 -4.3519 5.4226 -5.1497 11.4062 1.7086 -2.1828 4.3132 -0.0000 -0.0000 0.0000 -84.8737 2.7876 16.9594 13.7176 -22.3296 -2.7199 -0.0000 -0.0000 1.3478 22.4268 -10.5787 -4.3330 -7.1250 0.0000 -0.0000 -3.2689 18.5682 2.0612 -0.0000 -0.0000 0.0000 91.7520 -8.4554 7.5768 -19.2225 29.6942 -5.1406 0.0000 -0.0000 -4.3624 -4.6044 -58.3624 3.9224 7.1250 -0.0000 -0.0000 88.2390 -73.7659 -71.2467
-1.1831 19.6472 20.3701 178.2130 -2.0183 -152.4420 0.0000 0.0000 0.0000 -20.9250 -15.0897 -20.4175 0.1564 2.5480 7.0228 0.1198 -4.0974 -6.3694 0.6411 -5.1226 -14.2585 0.0000 0.0000 0.0000 18.9122 14.2223 -21.9917 -0.1615 -2.5890 7.1364 -1.0127 3.1435 -18.2264 -1.7980 8.4319 -24.0339 -7.4923 -2.8456 -29.2047 -0.1619 -2.0025 -1.8051 3.0447 -1.6530 13.5666 -1.7839 -3.7269 -4.2695 5.3749 -5.1449 11.4055 1.6873 -2.1808 4.2964 0.0000 0.0000 0.0000 -84.8478 2.8542 17.0465 13.7448 -22.3687 -2.7302 -0.0000 -0.0000 1.2603 21.9619 -10.5564 -4.2252 -7.1250 0.0000 -0.0000 -3.5968 18.6309 2.2637 0.0000 0.0000 0.0000 91.7705 -8.5030 7.5407 -19.1635 29.6214 -5.1114 0.0000 -0.0000 -4.4310 -5.0248 -58.0651 4.2673 7.1250 -0.0000 -0.0000 87.1766 -73.9109 -70.3204
-1.1819 19.6429 20.3705 178.1980 -2.0163 -152.3040 0.0000 0.0000 0.0000 -20.9300 -15.0791 -20.5894 0.1579 2.5603 7.0569 0.1168 -4.1584 -6.3154 0.6553 -5.1776 -14.4159 0.0000 0.0000 0.0000 18.9127 14.0702 -22.2520 -0.1657 -2.6228 7.2303 -1.0163 3.4367 -18.2124 -1.7456 8.3147 -23.6740 -7.5110 -2.8670 -29.3386 -0.1552 -2.0261 -1.8375 3.0476 -1.6692 13.5922 -1.8107 -3.6996 -4.1869 5.4478 -5.1119 11.2213 1.7178 -2.1693 4.2278 0.0000 0.0000 0.0000 -84.8410 2.8664 17.0762 13.7501 -22.3763 -2.7322 -0.0000 -0.0000 1.1418 21.7698 -10.6200 -4.2094 -7.1250 0.0000 -0.0000 -3.7345 18.5787 2.3551 0.0000 0.0000 0.0000 91.7949 -8.5399 7.4724 -19.2003 29.6668 -5.1296 0.0000 -0.0000 -4.2624 -4.7530 -58.4922 4.0548 7.1250 -0.0000 -0.0000 88.6789 -73.8138 -71.7555
-1.1824 19.6451 20.3684 178.1280 -2.0593 -152.3480 0.0000 0.0000 0.0000 -21.0280 -15.1419 -20.4917 0.1579 2.5600 7.0561 0.1164 -4.1470 -6.3033 0.6941 -5.3257 -14.8398 0.0000 0.0000 0.0000 18.8908 13.7319 -22.2861 -0.1649 -2.6158 7.2110 -1.0156 3.7413 -18.1619 -1.7123 8.2393 -23.4432 -7.5545 -2.8963 -29.2634 -0.1741 -2.0503 -1.8292 3.0437 -1.6804 13.5704 -1.7873 -3.6803 -4.2139 5.3057 -5.0604 10.7413 1.8629 -2.1756 4.5338 -0.0000 0.0000 0.0000 -84.8288 2.8329 17.0705 13.7115 -22.3208 -2.7176 -0.0000 -0.0000 1.0922 21.7897 -10.7991 -4.2836 -7.1250 0.0000 -0.0000 -3.7259 18.3857 2.3655 -0.0000 0.0000 0.0000 91.8226 -8.5107 7.3787 -19.1674 29.6262 -5.1134 0.0000 -0.0000 -4.1445 -4.5250 -58.4910 3.8600 7.1250 -0.0000 -0.0000 88.6873 -73.7368 -71.6763
-1.1811 19.6443 20.3677 178.1220 -2.0715 -152.2940 0.0000 0.0000 0.0000 -21.0137 -15.1363 -20.5834 0.1595 2.5734 7.0934 0.1156 -4.1725 -6.2919 0.7179 -5.4144 -15.0943 0.0000 0.0000 0.0000 18.9035 13.6125 -22.4004 -0.1652 -2.6185 7.2185 -1.0110 3.8608 -18.1038 -1.7009 8.2131 -23.3632 -7.5607 -2.9036 -29.2767 -0.1617 -2.0632 -1.8514 3.0550 -1.6875 13.5527 -1.7673 -3.6466 -4.2554 5.2368 -5.0129 10.7015 1.8373 -2.1571 4.5219 -0.0000 -0.0000 0.0000 -84.8766 2.7877 16.9691 13.6575 -22.2429 -2.6971 -0.0000 -0.0000 1.1903 21.8729 -10.8993 -4.3408 -7.1250 0.0000 -0.0000 -3.6702 18.2716 2.3393 -0.0000 -0.0000 0.0000 91.7931 -8.4573 7.3207 -19.0988 29.5413 -5.0795 0.0000 -0.0000 -4.1205 -4.4728 -58.7720 3.8268 7.1250 -0.0000 -0.0000 89.6569 -73.7111 -72.6525
-1.1804 19.6439 20.3636 178.1710 -2.1056 -152.3330 0.0000 0.0000 0.0000 -20.9360 -15.1975 -20.5147 0.1595 2.5730 7.0921 0.1206 -4.1182 -6.3917 0.7101 -5.3856 -15.0118 0.0000 0.0000 0.0000 18.9497 13.7393 -22.2379 -0.1608 -2.5837 7.1219 -1.0102 3.6556 -18.1233 -1.7091 8.2318 -23.4204 -7.4968 -2.8932 -29.2658 -0.1416 -2.0750 -1.8635 3.0386 -1.6889 13.5352 -1.7846 -3.5712 -4.1785 5.1924 -4.9026 10.7332 1.8324 -2.1049 4.5120 0.0000 0.0000 0.0000 -84.8922 2.8077 16.9361 13.6217 -22.1913 -2.6836 -0.0000 -0.0000 1.1816 21.9355 -10.9125 -4.3597 -7.1250 0.0000 -0.0000 -3.6265 18.2521 2.3129 0.0000 0.0000 0.0000 91.7949 -8.5502 7.2203 -19.0905 29.5310 -5.0754 0.0000 -0.0000 -4.0280 -4.3892 -57.8291 3.7173 7.1250 -0.0000 -0.0000 86.4214 -73.6905 -69.2951
-1.1790 19.6423 20.3613 178.2040 -2.1503 -152.2950 0.0000 0.0000 0.0000 -20.8899 -15.1547 -20.5743 0.1596 2.5743 7.0958 0.1156 -4.2248 -6.3050 0.6173 -5.0281 -13.9888 0.0000 0.0000 0.0000 19.0346 13.6937 -22.2292 -0.1575 -2.5567 7.0470 -1.0061 3.6731 -18.0828 -1.7420 8.3065 -23.6491 -7.4593 -2.8889 -29.3388 -0.1271 -2.0840 -1.8863 3.0280 -1.6931 13.5426 -1.7778 -3.5096 -4.1267 5.1785 -4.8145 10.8158 1.8326 -2.0583 4.5271 -0.0000 0.0000 0.0000 -84.8590 2.8587 17.0993 13.6215 -22.1910 -2.6835 -0.0000 -0.0000 1.0022 21.7975 -10.8070 -4.2883 -7.1250 0.0000 -0.0000 -3.7205 18.3767 2.3628 -0.0000 0.0000 0.0000 91.8083 -8.6306 7.1672 -19.0964 29.5382 -5.0783 0.0000 -0.0000 -3.9362 -4.7723 -58.6794 4.0794 7.1250 -0.0000 -0.0000 89.3261 -73.8150 -72.4271
-1.1783 19.6402 20.3552 178.1940 -2.1862 -152.2780 0.0000 0.0000 0.0000 -20.9184 -15.1316 -20.5255 0.1567 2.5510 7.0310 0.1140 -4.2465 -6.2731 0.5967 -4.9450 -13.7517 0.0000 0.0000 0.0000 19.0667 13.6461 -22.1507 -0.1527 -2.5178 6.9390 -1.0031 3.6795 -18.0542 -1.7329 8.2860 -23.5861 -7.4576 -2.9290 -29.4426 -0.0979 -2.1271 -1.8488 3.0377 -1.7150 13.6388 -1.8281 -3.4486 -4.1141 5.2064 -4.7341 10.6396 1.8545 -2.0269 4.4597 0.0000 0.0000 0.0000 -84.8828 2.9049 17.2426 13.6724 -22.2645 -2.7027 -0.0000 -0.0000 0.8229 21.6976 -10.5364 -4.1615 -7.1250 0.0000 -0.0000 -3.7831 18.6739 2.3779 0.0000 0.0000 0.0000 91.7313 -8.5625 7.2081 -19.0091 29.4299 -5.0353 0.0000 -0.0000 -4.1307 -5.5145 -58.6497 4.7133 7.1250 -0.0000 -0.0000 89.2016 -74.0661 -72.5829
-1.1752 19.6408 20.3490 178.1740 -2.1512 -152.3640 0.0000 0.0000 0.0000 -20.9834 -15.0612 -20.3409 0.1519 2.5110 6.9203 0.1189 -4.2124 -6.3773 0.6527 -5.1678 -14.3878 0.0000 0.0000 0.0000 19.0363 13.8964 -21.8280 -0.1457 -2.4602 6.7793 -1.0062 3.3983 -18.1246 -1.7061 8.2250 -23.3997 -7.5104 -2.9618 -29.4310 -0.0837 -2.1430 -1.7915 3.0754 -1.7244 13.7035 -1.5327 -3.5751 -4.2308 4.8817 -4.8989 10.8775 1.6800 -2.1037 4.5533 0.0000 0.0000 0.0000 -84.9075 2.9318 17.2460 13.6930 -22.2942 -2.7106 -0.0000 -0.0000 0.7956 21.7440 -10.4088 -4.1215 -7.1250 0.0000 -0.0000 -3.7467 18.8065 2.3439 0.0000 0.0000 0.0000 91.7059 -8.5070 7.1676 -18.9585 29.3671 -5.0105 0.0000 -0.0000 -4.1447 -5.6059 -58.2843 4.7730 7.1250 -0.0000 -0.0000 87.9096 -74.1075 -71.2970
-1.1726 19.6391 20.3514 178.1770 -2.0654 -152.2730 0.0000 0.0000 0.0000 -20.9773 -14.9521 -20.5042 0.1532 2.5219 6.9503 0.1201 -4.2530 -6.4124 0.6743 -5.2510 -14.6257 0.0000 0.0000 0.0000 19.0171 14.0028 -21.9808 -0.1497 -2.4932 6.8708 -1.0057 3.4080 -18.1185 -1.7166 8.2490 -23.4729 -7.5335 -2.9338 -29.5066 -0.1042 -2.0991 -1.8165 3.0798 -1.7084 13.7026 -0.5325 -4.0435 -4.4886 3.9456 -5.5175 12.4569 1.0176 -2.3479 4.5952 -0.0000 0.0000 0.0000 -84.8949 2.8931 17.1484 13.6173 -22.1850 -2.6819 -0.0000 -0.0000 0.9898 21.7565 -10.5104 -4.1638 -7.1250 0.0000 -0.0000 -3.7407 18.6969 2.3492 -0.0000 0.0000 0.0000 91.7369 -8.4869 7.1157 -18.9014 29.2959 -4.9825 0.0000 -0.0000 -4.1044 -5.6478 -57.9893 4.7934 7.1250 -0.0000 -0.0000 86.8640 -74.1243 -70.2445
